<?xml version="1.0" standalone="no"?>
<!DOCTYPE svg PUBLIC "-//W3C//DTD SVG 20010904//EN"
 "http://www.w3.org/TR/2001/REC-SVG-20010904/DTD/svg10.dtd">
<svg version="1.0" xmlns="http://www.w3.org/2000/svg"
 width="700.000000pt" height="700.000000pt" viewBox="0 0 700.000000 700.000000"
 preserveAspectRatio="xMidYMid meet">
<metadata>
Created by potrace 1.11, written by Peter Selinger 2001-2013
</metadata>
<g transform="translate(0.000000,700.000000) scale(0.100000,-0.100000)"
fill="#000000" stroke="none">
<path d="M3498 5620 l-3 -1374 -1113 0 c-611 0 -1112 -3 -1112 -8 0 -4 11 -27
23 -50 13 -24 52 -97 87 -163 86 -164 155 -295 205 -390 23 -44 71 -134 105
-200 34 -66 79 -151 100 -190 38 -71 86 -163 200 -380 34 -66 75 -142 90 -170
15 -27 60 -112 99 -187 39 -76 86 -166 105 -200 18 -35 82 -155 141 -268 59
-113 124 -236 145 -275 41 -77 107 -203 192 -365 31 -58 96 -181 145 -275 50
-93 118 -224 153 -290 76 -145 134 -255 187 -355 22 -41 74 -140 116 -220 42
-80 90 -170 106 -200 l31 -55 2 1375 3 1374 1107 1 c608 0 1109 3 1113 7 4 4
-6 31 -23 60 -16 29 -58 107 -92 173 -129 247 -174 332 -205 390 -18 33 -65
123 -105 200 -40 77 -81 154 -90 170 -10 17 -45 83 -79 148 -143 274 -186 356
-221 422 -47 88 -121 228 -195 370 -32 61 -70 133 -85 160 -15 28 -60 113
-100 190 -40 77 -85 163 -100 190 -15 28 -58 109 -95 180 -37 72 -87 166 -110
210 -40 75 -62 116 -196 373 -29 53 -64 120 -79 147 -15 28 -60 113 -100 190
-40 77 -90 172 -110 210 -20 39 -68 129 -105 200 -38 72 -83 157 -102 190
l-33 60 -2 -1375z"/>
</g>
</svg>
